<svg viewBox="0 0 24 24" xmlns="http://www.w3.org/2000/svg">
    <g class="background">
        <path fill="#FEFEFE" d="M1 1h1v22H1z"/>
        <path fill="#BABABA" d="M2 2h20v20H2z"/>
        <path fill="#C3CCD2" d="M2 22h21v1H2z"/>
        <path d="M0 0h1v24H0V0zm1 0h22v1H1V0z" fill="#767A7D"/>
        <path d="M23 0h1v24h-1V0zM1 23h22v1H1v-1z" fill="#56595C"/>
        <path fill="#C3CCD2" d="M22 1h1v21h-1z"/>
        <path fill="#FEFEFE" d="M2 1h20v1H2z"/>
    </g>
    <g class="carousel">
        <path fill="#FFF" d="M3 4h18v16H3z"/>
        <path d="M3 10h1v4H3v-4zm17 0h1v4h-1v-4z" fill="#CBCBCB"/>
        <path d="M4 11h1v2H4v-2zm15 0h1v2h-1v-2z" fill="#CBCDCF"/>
        <path fill="#FF8700" d="M15 5h1v1h-1z"/>
        <path d="M13 5h1v1h-1V5zm4 0h1v1h-1V5zm2 0h1v1h-1V5z" fill="#7D858D"/>
    </g>
    <g class="logo">
        <path d="M13.636 13.461c-.986 0-2.435-3.413-2.435-4.55 0-.418.1-.557.242-.677-1.207.14-2.656.578-3.119 1.136-.1.14-.16.359-.16.638 0 1.774 1.91 5.799 3.259 5.799.623 0 1.675-1.016 2.54-2.391a1.077 1.077 0 01-.327.045zM15.83 9.011c0 1.415-.905 3.13-1.368 3.13-.825 0-1.852-2.272-1.852-3.408 0-.519.201-.618.724-.618 1.248 0 2.496.199 2.496.896z" fill="#FF8700"/>
        <path d="M11.998 8.115c.037.019.075.036.111.056a.356.356 0 01.18.295.354.354 0 01-.159.305c-.057.04-.076.072-.06.139.098.414.188.83.288 1.245a.351.351 0 00.293.275.37.37 0 00.382-.141c.085-.108.165-.218.245-.325-.173-.226-.19-.374-.067-.528a.371.371 0 01.42-.113c.157.06.243.201.23.373-.015.188-.13.279-.43.334-.032.193-.074.39-.094.588-.015.144.058.263.191.336.128.07.266.07.387-.011.179-.119.351-.246.52-.376.024-.019.026-.086.013-.122a.363.363 0 01.228-.48.38.38 0 01.296.03c.09.05.154.134.176.231a.35.35 0 01-.073.307.379.379 0 01-.295.134c-.038 0-.075-.007-.122-.01l-.391 1.076c-.064.177-.132.354-.19.533-.025.08-.067.107-.154.106-.872-.003-1.744-.002-2.615-.002-.46 0-.919-.003-1.378.002-.1.002-.14-.031-.171-.118-.175-.495-.356-.99-.534-1.483l-.04-.101c-.09-.008-.173-.004-.247-.025a.357.357 0 01-.217-.178.336.336 0 01-.014-.275.373.373 0 01.629-.115.342.342 0 01.057.354c-.035.082-.019.122.051.17.15.1.294.209.44.315.135.098.28.114.428.033a.34.34 0 00.187-.362c-.018-.146-.051-.29-.067-.437-.01-.098-.044-.139-.153-.144a.335.335 0 01-.293-.255.362.362 0 01.149-.391.374.374 0 01.408-.003.352.352 0 01.088.519c-.02.026-.043.05-.072.082.093.123.179.25.279.365a.353.353 0 00.37.107.366.366 0 00.28-.288c.08-.335.155-.67.231-1.006.01-.04.016-.08.028-.12.034-.112.046-.196-.08-.289-.192-.14-.136-.446.078-.561.033-.018.067-.034.1-.051h.153zM9.879 13.597v-.72h4.346v.72z" fill="#FFF"/>
    </g>
</svg>
